Coordinates
version=1
nRows=27
nColumns=33
inDegrees=yes

Units are S.I. units (second, meters, Newtons, ...)
Angles are in degrees.

endheader
time	ground_thorax_rot_x	ground_thorax_rot_y	ground_thorax_rot_z	ground_thorax_tx	ground_thorax_ty	ground_thorax_tz	clav_prot_r	clav_elev_r	scapula_abduction_r	scapula_elevation_r	scapula_upward_rot_r	scapula_winging_r	shoulder_elv_r	plane_of_elev_r	axial_rot_r	elbow_flexion_r	pro_sup_r	wrist_flex_r	wrist_dev_r	clav_prot_l	clav_elev_l	scapula_abduction_l	scapula_elevation_l	scapula_upward_rot_l	scapula_winging_l	shoulder_elv_l	plane_of_elev_l	axial_rot_l	elbow_flexion_l	pro_sup_l	wrist_flex_l	wrist_dev_l	
5.8300	0.387913	-1.479417	13.894394	-0.121047	1.029892	0.014529	8.031459	-6.850192	15.158485	-1.113540	2.568681	-4.106768	-54.696787	-71.199217	86.430064	-58.931584	-129.908547	48.887918	-25.000000	8.411334	1.242320	-9.089172	-23.015744	-34.796189	-2.962055	50.545947	-37.330565	2.932528	59.779162	28.520450	-5.169869	-25.000000	
5.8400	0.390113	-1.468228	13.909338	-0.121090	1.029637	0.014471	8.010187	-6.888032	15.124499	-1.147473	2.568152	-4.080810	-54.620945	-71.200814	86.456131	-58.895035	-129.918310	49.049119	-25.000000	8.363253	1.162637	-9.018177	-22.953139	-34.827133	-2.984298	50.644670	-37.341099	2.840628	59.768972	28.513554	-5.285012	-25.000000	
5.8500	0.406973	-1.455835	13.905223	-0.121087	1.029480	0.014458	7.969325	-6.954159	15.054715	-1.203573	2.559217	-4.031148	-54.464679	-71.222964	86.502958	-58.817173	-129.937532	49.378341	-25.000000	8.273765	1.021787	-8.884596	-22.842296	-34.881877	-3.026413	50.867563	-37.385358	2.667010	59.748188	28.498757	-5.521869	-25.000000	
5.8600	0.432337	-1.439704	13.895824	-0.121039	1.029453	0.014461	7.912623	-7.045343	14.957697	-1.280746	2.546478	-3.962222	-54.243887	-71.258125	86.567903	-58.709653	-129.964733	49.841620	-25.000000	8.149576	0.827722	-8.698938	-22.688555	-34.955324	-3.084333	51.185661	-37.447786	2.425107	59.720866	28.477800	-5.855459	-25.000000	
5.8700	0.465137	-1.420731	13.877025	-0.120949	1.029513	0.014487	7.845082	-7.154153	14.842040	-1.372730	2.531001	-3.880044	-53.972986	-71.307654	86.646265	-58.583972	-129.998378	50.406860	-25.000000	8.000949	0.597123	-8.475926	-22.504290	-35.039356	-3.153336	51.579615	-37.521626	2.132892	59.691482	28.452298	-6.262768	-25.000000	
5.8800	0.495966	-1.401310	13.860704	-0.120851	1.029565	0.014524	7.785089	-7.254314	14.741006	-1.458699	2.519907	-3.806664	-53.720446	-71.359192	86.719229	-58.480372	-130.030701	50.928022	-25.000000	7.866871	0.388346	-8.273457	-22.333364	-35.107111	-3.214334	51.948314	-37.574685	1.864121	59.672818	28.429087	-6.638428	-25.000000	
5.8900	0.525248	-1.378849	13.834412	-0.120748	1.029582	0.014563	7.736492	-7.343526	14.661138	-1.536599	2.513334	-3.745490	-53.490794	-71.415258	86.787246	-58.412631	-130.062023	51.394175	-25.000000	7.751978	0.209582	-8.098080	-22.182026	-35.154791	-3.265355	52.282584	-37.595562	1.621807	59.670649	28.409923	-6.973968	-25.000000	
5.9000	0.545354	-1.356460	13.808958	-0.120665	1.029487	0.014602	7.712533	-7.400875	14.625163	-1.588792	2.514368	-3.712435	-53.338162	-71.465639	86.836168	-58.407822	-130.086354	51.693632	-25.000000	7.685546	0.104512	-7.993648	-22.084018	-35.164202	-3.292237	52.506232	-37.565664	1.462916	59.694179	28.399415	-7.189258	-25.000000	
5.9100	0.556950	-1.330392	13.780361	-0.120598	1.029298	0.014634	7.709958	-7.431081	14.625537	-1.617622	2.518375	-3.702883	-53.251141	-71.514440	86.872809	-58.461117	-130.106120	51.857056	-25.000000	7.659521	0.060943	-7.948593	-22.031019	-35.142704	-3.299229	52.641614	-37.493010	1.370620	59.746277	28.395680	-7.306840	-25.000000	
5.9200	0.559727	-1.303572	13.757734	-0.120538	1.029039	0.014671	7.723727	-7.435969	14.650837	-1.622478	2.519917	-3.711328	-53.224542	-71.561585	86.900283	-58.559297	-130.122735	51.904186	-25.000000	7.667193	0.067591	-7.953825	-22.015916	-35.098590	-3.289671	52.706585	-37.395251	1.336385	59.826675	28.395485	-7.342398	-24.999999	
5.9300	0.561684	-1.269580	13.720294	-0.120462	1.028763	0.014718	7.740136	-7.436406	14.674180	-1.618267	2.509255	-3.719982	-53.203068	-71.624750	86.943686	-58.691592	-130.146893	51.964265	-25.000000	7.677624	0.078233	-7.963810	-22.005300	-35.055700	-3.279046	52.794765	-37.294266	1.288710	59.949276	28.391913	-7.389937	-24.999999	
5.9400	0.560674	-1.230715	13.683282	-0.120364	1.028482	0.014778	7.756070	-7.428683	14.686848	-1.599230	2.480609	-3.726343	-53.190843	-71.703734	87.002193	-58.855262	-130.181066	52.033650	-24.999999	7.689188	0.090381	-7.976853	-21.999313	-35.019308	-3.268611	52.909499	-37.200954	1.231714	60.116701	28.381514	-7.449291	-24.999998	
5.9500	0.556158	-1.182340	13.640583	-0.120244	1.028173	0.014846	7.770826	-7.411042	14.686027	-1.562636	2.431013	-3.729813	-53.186520	-71.801735	87.083628	-59.073249	-130.234032	52.118964	-24.999999	7.701466	0.104433	-7.992756	-22.000215	-34.993081	-3.259211	53.062352	-37.111375	1.156889	60.353632	28.360923	-7.528128	-24.999997	
5.9600	0.550885	-1.127180	13.610136	-0.120090	1.027848	0.014928	7.778900	-7.376980	14.652500	-1.495148	2.342559	-3.723978	-53.187505	-71.932051	87.184875	-59.355325	-130.313672	52.223800	-24.999998	7.708239	0.114744	-8.003370	-22.009184	-34.990717	-3.255765	53.263729	-37.031565	1.064391	60.657794	28.323694	-7.633137	-24.999995	
5.9700	0.543259	-1.060948	13.571522	-0.119909	1.027507	0.015019	7.781735	-7.333432	14.595961	-1.408459	2.228169	-3.710994	-53.186471	-72.085927	87.309693	-59.715708	-130.435364	52.345772	-24.999997	7.711043	0.119750	-8.010686	-22.021836	-35.006433	-3.256130	53.519286	-36.945102	0.952815	61.035780	28.266897	-7.765927	-24.999991	
5.9800	0.532080	-0.985800	13.534660	-0.119693	1.027192	0.015131	7.775996	-7.282242	14.516251	-1.308620	2.098659	-3.690795	-53.178475	-72.245951	87.444783	-60.128019	-130.615605	52.463471	-24.999994	7.707735	0.113908	-8.010872	-22.030709	-35.036365	-3.260430	53.821771	-36.854209	0.843401	61.462110	28.185214	-7.916525	-24.999984	
5.9900	0.513143	-0.900191	13.485857	-0.119453	1.026922	0.015265	7.764396	-7.232678	14.433287	-1.215808	1.982495	-3.669510	-53.162230	-72.382610	87.589945	-60.572718	-130.877676	52.553488	-24.999990	7.702931	0.095896	-8.009989	-22.027313	-35.066213	-3.263521	54.160528	-36.750322	0.750072	61.929806	28.075142	-8.070828	-24.999971	
6.0000	0.491406	-0.807259	13.436370	-0.119188	1.026711	0.015426	7.745667	-7.183926	14.345297	-1.129626	1.880703	-3.646811	-53.135905	-72.492513	87.739124	-61.032984	-131.241534	52.601807	-24.999982	7.694178	0.061106	-8.004415	-22.007729	-35.097306	-3.266486	54.527031	-36.633784	0.685439	62.421948	27.930095	-8.218878	-24.999949	
6.0100	0.467449	-0.707368	13.379118	-0.118919	1.026583	0.015607	7.725588	-7.147994	14.270095	-1.066458	1.806553	-3.626142	-53.099100	-72.566829	87.900769	-61.491348	-131.733635	52.593195	-24.999968	7.684839	0.005304	-7.999872	-21.964665	-35.123527	-3.265177	54.911887	-36.492676	0.654772	62.922222	27.742964	-8.343141	-24.999908	
6.0200	0.447266	-0.604478	13.319549	-0.118642	1.026514	0.015809	7.702521	-7.120619	14.200364	-1.019016	1.751887	-3.605830	-53.046394	-72.613398	88.073825	-61.958954	-132.370618	52.528972	-24.999942	7.671654	-0.072999	-7.991810	-21.900283	-35.152162	-3.262735	55.314757	-36.327950	0.662580	63.432271	27.504033	-8.436312	-24.999835	
6.0300	0.440757	-0.503470	13.263251	-0.118369	1.026520	0.016026	7.673174	-7.115767	14.115206	-0.986230	1.683739	-3.571056	-52.959407	-72.669449	88.300501	-62.458837	-133.322007	52.377491	-24.999897	7.645737	-0.203309	-7.978274	-21.812657	-35.239864	-3.266133	55.785834	-36.133673	0.694026	63.951224	27.150664	-8.485620	-24.999705	
6.0400	0.447517	-0.407929	13.214849	-0.118090	1.026549	0.016258	7.637022	-7.122804	14.006178	-0.953133	1.589127	-3.521553	-52.837634	-72.749210	88.573031	-63.021153	-134.514389	52.176871	-24.999815	7.605905	-0.370872	-7.953343	-21.712874	-35.378555	-3.278474	56.318042	-35.914408	0.743517	64.488618	26.696921	-8.490268	-24.999472	
6.0500	0.462828	-0.318941	13.175923	-0.117815	1.026615	0.016500	7.600393	-7.147853	13.885483	-0.925780	1.469315	-3.459866	-52.677662	-72.850663	88.887460	-63.637093	-135.889408	51.942530	-24.999669	7.555510	-0.567364	-7.918666	-21.600542	-35.550339	-3.296989	56.895031	-35.667063	0.809864	65.023718	26.151175	-8.422270	-24.999054	
6.0600	0.473772	-0.236610	13.133432	-0.117532	1.026659	0.016755	7.570743	-7.174771	13.781542	-0.903717	1.358265	-3.404450	-52.491359	-72.934544	89.200939	-64.309720	-137.216733	51.731054	-24.999407	7.506919	-0.749765	-7.877828	-21.483816	-35.683489	-3.313172	57.453820	-35.397140	0.900677	65.566521	25.583051	-8.264641	-24.998306	
6.0700	0.487550	-0.164178	13.100352	-0.117257	1.026704	0.017010	7.555959	-7.217931	13.692895	-0.885798	1.222268	-3.347698	-52.249785	-73.021709	89.540198	-65.043442	-138.588705	51.515121	-24.998938	7.456162	-0.935509	-7.830336	-21.356944	-35.802047	-3.329352	58.011583	-35.107937	1.010415	66.103207	24.929374	-7.923299	-24.996965	
6.0800	0.490671	-0.100370	13.067783	-0.116980	1.026720	0.017266	7.560250	-7.262078	13.644874	-0.874779	1.100832	-3.306930	-51.969794	-73.078517	89.875922	-65.822689	-139.805267	51.324433	-24.998099	7.414706	-1.090481	-7.781471	-21.224586	-35.845505	-3.337155	58.516249	-34.803444	1.145989	66.630761	24.263130	-7.389381	-24.994565	
6.0900	0.485928	-0.043522	13.039597	-0.116707	1.026730	0.017518	7.583179	-7.310305	13.637237	-0.873834	0.994745	-3.281041	-51.646990	-73.113697	90.219294	-66.634139	-140.901387	51.128041	-24.996594	7.382799	-1.226354	-7.735767	-21.080940	-35.826290	-3.335642	58.979213	-34.481842	1.301184	67.130698	23.582637	-6.655351	-24.990259	
